<?xml version="1.0" encoding="UTF-8" standalone="no"?>
<!-- Created with Inkscape (http://www.inkscape.org/) -->

<svg
   xmlns:dc="http://purl.org/dc/elements/1.1/"
   xmlns:cc="http://creativecommons.org/ns#"
   xmlns:rdf="http://www.w3.org/1999/02/22-rdf-syntax-ns#"
   xmlns:svg="http://www.w3.org/2000/svg"
   xmlns="http://www.w3.org/2000/svg"
   xmlns:sodipodi="http://sodipodi.sourceforge.net/DTD/sodipodi-0.dtd"
   xmlns:inkscape="http://www.inkscape.org/namespaces/inkscape"
   width="100"
   height="100"
   viewBox="0 0 99.999997 99.999997"
   id="svg3344"
   version="1.1"
   inkscape:version="0.91 r13725"
   sodipodi:docname="logo.svg">
  <defs
     id="defs3346" />
  <sodipodi:namedview
     id="base"
     pagecolor="#ffffff"
     bordercolor="#666666"
     borderopacity="1.0"
     inkscape:pageopacity="0.0"
     inkscape:pageshadow="2"
     inkscape:zoom="4"
     inkscape:cx="5.698943"
     inkscape:cy="66.322174"
     inkscape:document-units="px"
     inkscape:current-layer="layer2"
     showgrid="false"
     fit-margin-top="0"
     fit-margin-left="0"
     fit-margin-right="0"
     fit-margin-bottom="0"
     units="px"
     inkscape:snap-global="false"
     inkscape:window-width="1920"
     inkscape:window-height="1017"
     inkscape:window-x="-8"
     inkscape:window-y="-8"
     inkscape:window-maximized="1">
    <inkscape:grid
       type="xygrid"
       id="grid3352" />
  </sodipodi:namedview>
  <metadata
     id="metadata3349">
    <rdf:RDF>
      <cc:Work
         rdf:about="">
        <dc:format>image/svg+xml</dc:format>
        <dc:type
           rdf:resource="http://purl.org/dc/dcmitype/StillImage" />
        <dc:title />
      </cc:Work>
    </rdf:RDF>
  </metadata>
  <g
     inkscape:groupmode="layer"
     id="layer2"
     inkscape:label="Layer 2">
    <path
       style="opacity:1;fill:#ff9900;fill-opacity:1"
       d="M 92.75373,51.272103 A 42.907451,49.952362 0 0 0 49.846635,1.31856 42.907451,49.952362 0 0 0 6.9395595,51.272103 42.907451,49.952362 0 0 0 30.76061,95.943478 38.083539,41.594189 0 0 1 11.508172,59.826569 38.083539,41.594189 0 0 1 49.592328,18.231904 38.083539,41.594189 0 0 1 87.676469,59.826569 38.083539,41.594189 0 0 1 60.751089,99.55256 42.907451,49.952362 0 0 0 92.75373,51.272103 Z"
       id="path4168"
       inkscape:connector-curvature="0" />
  </g>
  <g
     inkscape:label="Layer 1"
     inkscape:groupmode="layer"
     id="layer1"
     transform="translate(0,-952.36223)"
     style="opacity:1">
    <path
       style="fill:#3366cc;fill-rule:evenodd;stroke:none;stroke-width:0.91181636px;stroke-linecap:butt;stroke-linejoin:miter;stroke-opacity:1"
       d="m 77.68694,985.60597 c 0,0 -14.603735,13.15096 -16.885572,28.35173 -2.864016,19.0789 -1.96557,21.2236 -1.825467,23.7406 0.152122,2.7324 3.498813,9.7349 3.498813,9.7349 l -33.466897,-3.8527 4.04948,-3.9139 -6.483436,-35.4441 c 0,0 -6.237013,-28.35178 -15.060107,-34.50036 -8.8230914,-6.14854 -1.8254675,-10.58921 -1.8254675,-10.58921 0,0 4.4115445,-3.24508 6.5412605,0.68316 2.129709,3.92829 1.977588,6.31938 3.803054,9.56447 1.825469,3.24506 13.908457,32.18524 15.212227,34.67114 0.921182,1.7564 1.940018,3.2228 3.803057,5.1236 1.896224,1.4791 3.693378,2.9914 8.483469,-0.2832 3.852592,-2.7123 11.23818,-11.00142 11.23818,-11.00142 l 13.288882,-16.21292 c 0,0 1.673346,-6.4902 4.259425,-6.4902 2.586078,0 2.586077,1.02473 4.411545,3.41593 1.825466,2.3911 2.890321,3.41586 1.673347,5.29455 -1.216979,1.87868 -4.715793,1.70793 -4.715793,1.70793 z"
       id="path4158"
       inkscape:connector-curvature="0"
       sodipodi:nodetypes="cssccccscsssccccsssc" />
    <ellipse
       style="fill:#3366cc;fill-rule:evenodd;stroke:none;stroke-width:0.91181636px;stroke-linecap:butt;stroke-linejoin:miter;stroke-opacity:1"
       id="path4160"
       cx="44.600342"
       cy="992.22968"
       rx="9.0512743"
       ry="10.760008" />
    <g
       transform="matrix(0.89898043,0,0,1.1123713,2,-4)"
       style="font-style:normal;font-weight:normal;font-size:29.49719238px;line-height:125%;font-family:sans-serif;letter-spacing:0px;word-spacing:0px;fill:#ffffff;fill-opacity:1;stroke:none;stroke-width:1px;stroke-linecap:butt;stroke-linejoin:miter;stroke-opacity:1"
       id="text4162">
      <path
         d="m 45.087506,927.06036 q 1.944395,-0.82096 3.154241,-2.24685 1.209846,-1.4403 1.209846,-2.82298 0,-0.80656 -0.302461,-1.18104 -0.302462,-0.38888 -0.936191,-0.38888 -0.432087,0 -0.849772,0.12963 -0.417685,0.12963 -0.950593,0.43209 l -1.32507,6.07803 z m -8.656158,-8.02243 11.061447,-1.26745 q 1.555516,-0.17284 2.290065,-0.23045 0.73455,-0.0576 1.166637,-0.0576 4.392893,0 6.812584,2.20365 2.419692,2.20364 2.419692,6.19325 0,3.58633 -2.203648,5.81879 -2.203648,2.23245 -5.732364,2.23245 -2.002007,0 -3.672747,-0.59052 -1.670739,-0.60492 -2.837376,-1.75716 l 0.907384,5.12744 4.72416,2.86619 -14.518149,-1.36828 2.030812,-1.44029 2.102828,-15.75681 -4.551325,-1.9732 z"
         style="font-style:normal;font-variant:normal;font-weight:normal;font-stretch:normal;font-family:'Snap ITC';-inkscape-font-specification:'Snap ITC';fill:#ffffff"
         id="path4576"
         inkscape:connector-curvature="0" />
    </g>
  </g>
</svg>
