<?xml version="1.0" encoding="UTF-8" standalone="no"?>
<!-- Created with Inkscape (http://www.inkscape.org/) -->

<svg
   xmlns:dc="http://purl.org/dc/elements/1.1/"
   xmlns:cc="http://creativecommons.org/ns#"
   xmlns:rdf="http://www.w3.org/1999/02/22-rdf-syntax-ns#"
   xmlns:svg="http://www.w3.org/2000/svg"
   xmlns="http://www.w3.org/2000/svg"
   xmlns:sodipodi="http://sodipodi.sourceforge.net/DTD/sodipodi-0.dtd"
   xmlns:inkscape="http://www.inkscape.org/namespaces/inkscape"
   width="100"
   height="100"
   viewBox="0 0 100 100"
   id="svg4269"
   version="1.1"
   inkscape:version="0.91 r13725"
   sodipodi:docname="project5.svg">
  <title
     id="title4871">Catalog</title>
  <defs
     id="defs4271" />
  <sodipodi:namedview
     id="base"
     pagecolor="#ffffff"
     bordercolor="#666666"
     borderopacity="1.0"
     inkscape:pageopacity="0.0"
     inkscape:pageshadow="2"
     inkscape:zoom="4"
     inkscape:cx="95.032052"
     inkscape:cy="54.236688"
     inkscape:document-units="px"
     inkscape:current-layer="layer1"
     showgrid="false"
     units="px"
     inkscape:window-width="1920"
     inkscape:window-height="1017"
     inkscape:window-x="-8"
     inkscape:window-y="-8"
     inkscape:window-maximized="1"
     showguides="true"
     inkscape:guide-bbox="true">
    <sodipodi:guide
       position="-20,9.75"
       orientation="0,1"
       id="guide4945" />
  </sodipodi:namedview>
  <metadata
     id="metadata4274">
    <rdf:RDF>
      <cc:Work
         rdf:about="">
        <dc:format>image/svg+xml</dc:format>
        <dc:type
           rdf:resource="http://purl.org/dc/dcmitype/StillImage" />
        <dc:title>Catalog</dc:title>
      </cc:Work>
    </rdf:RDF>
  </metadata>
  <g
     inkscape:label="Layer 1"
     inkscape:groupmode="layer"
     id="layer1"
     transform="translate(0,-952.36216)">
    <g
       style="display:inline;fill:#3366cc"
       id="g3503"
       transform="matrix(0.09505256,0,0,0.08150423,2.47372,962.11004)">
      <path
         style="fill:#bfbfbf"
         id="path3505"
         d="m 941,10 -579.8,0 c -26.9,0 -49,22.1 -49,49 l 0,98 c 0,26.9 22.1,49 49,49 l 579.8,0 c 26.9,0 49,-22.1 49,-49 l 0,-98 C 990,32.1 967.9,10 941,10 Z"
         inkscape:connector-curvature="0" />
      <path
         style="fill:#bfbfbf"
         id="path3507"
         d="m 941,402 -579.8,0 c -26.9,0 -49,22.1 -49,49 l 0,98 c 0,26.9 22.1,49 49,49 l 579.8,0 c 26.9,0 49,-22.1 49,-49 l 0,-98 c 0,-26.9 -22.1,-49 -49,-49 z"
         inkscape:connector-curvature="0" />
      <path
         style="fill:#bfbfbf"
         id="path3509"
         d="m 941,794 -579.8,0 c -26.9,0 -49,22.1 -49,49 l 0,98 c 0,26.9 22.1,49 49,49 l 579.8,0 c 26.9,0 49,-22.1 49,-49 l 0,-98 c 0,-26.9 -22.1,-49 -49,-49 z"
         inkscape:connector-curvature="0" />
      <path
         style="fill:#ff9900"
         id="path3511"
         d="M 157,10 59,10 C 32.1,10 10,32.1 10,59 l 0,98 c 0,26.9 22.1,49 49,49 l 98,0 c 26.9,0 49,-22.1 49,-49 l 0,-98 C 206,32.1 183.9,10 157,10 Z"
         inkscape:connector-curvature="0" />
      <path
         style="fill:#669900"
         id="path3513"
         d="m 157,402 -98,0 c -26.9,0 -49,22.1 -49,49 l 0,98 c 0,26.9 22.1,49 49,49 l 98,0 c 26.9,0 49,-22.1 49,-49 l 0,-98 c 0,-26.9 -22.1,-49 -49,-49 z"
         inkscape:connector-curvature="0" />
      <path
         style="fill:#cc0000"
         id="path3515"
         d="m 157,794 -98,0 c -26.9,0 -49,22.1 -49,49 l 0,98 c 0,26.9 22.1,49 49,49 l 98,0 c 26.9,0 49,-22.1 49,-49 l 0,-98 c 0,-26.9 -22.1,-49 -49,-49 z"
         inkscape:connector-curvature="0" />
    </g>
  </g>
</svg>
